<?xml version="1.0" encoding="UTF-8"?>
<svg width="250px" height="250px" viewBox="0 0 250 250" version="1.1" xmlns="http://www.w3.org/2000/svg" xmlns:xlink="http://www.w3.org/1999/xlink">
    <g id="Page-1" stroke="none" stroke-width="1" fill="none" fill-rule="evenodd">
        <g id="LOGO">
            <rect id="Rectangle" fill="#3742FA" x="0" y="0" width="250" height="250"></rect>
            <polygon id="Rectangle" fill-opacity="0.03" fill="#000000" points="250 0 250 250 0 250"></polygon>
            <g id="Group" stroke-width="1" transform="translate(57.000000, 61.000000)">
                <path d="M76.0788732,128.289655 L58.5915493,81.4910345 L53.543662,81.4910345 L45.6112676,128.289655 L5.4084507,128.289655 L27.943662,0.36137931 L80.4056338,0.36137931 C87.3765607,0.36137931 93.6863567,1.14435999 99.3352113,2.71034483 C104.984066,4.27632967 109.791529,6.56504241 113.757746,9.57655172 C117.723963,12.588061 120.758675,16.2921619 122.861972,20.6889655 C124.965269,25.0857691 126.016901,30.1149142 126.016901,35.7765517 C126.016901,46.3770645 123.52303,55.1103105 118.535211,61.9765517 C113.547393,68.842793 106.726804,73.540677 98.0732394,76.0703448 L122.952113,128.289655 L76.0788732,128.289655 Z" id="R" fill="#FFFFFF"></path>
                <path d="M77.8816901,127.928276 L60.3943662,81.1296552 L55.3464789,81.1296552 L47.4140845,127.928276 L7.21126761,127.928276 L29.7464789,0 L82.2084507,0 C89.1793776,0 95.4891736,0.782980676 101.138028,2.34896552 C106.786883,3.91495036 111.594346,6.2036631 115.560563,9.21517241 C119.52678,12.2266817 122.561492,15.9307826 124.664789,20.3275862 C126.768086,24.7243898 127.819718,29.7535349 127.819718,35.4151724 C127.819718,46.0156852 125.325847,54.7489312 120.338028,61.6151724 C115.35021,68.4814136 108.529621,73.1792977 99.8760563,75.7089655 L124.75493,127.928276 L77.8816901,127.928276 Z M68.6873239,54.5682759 C74.2159901,54.5682759 78.5427074,53.634722 81.6676056,51.7675862 C84.7925039,49.9004504 86.3549296,46.9191009 86.3549296,42.8234483 C86.3549296,39.0891767 85.0629237,36.5294322 82.4788732,35.1441379 C79.8948228,33.7588436 76.379365,33.0662069 71.9323944,33.0662069 L64.1802817,33.0662069 L60.3943662,54.5682759" id="R" fill="#000000" opacity="0.0139741443"></path>
            </g>
        </g>
    </g>
</svg>
